# xmcd
#
# Track frame offsets: 
#        150
#        18782
#        32930
#        46756
#        60893
#        72257
#        86245
#        104425
#        121756
#        137014
#        148881
#        163078
#
# Disc length: 2353 seconds
#
# Revision: 2
# Processed by: cddbd v1.5.2PL0 Copyright (c) Steve Scherf et al.
# Submitted via: ExactAudioCopy v0.99pb5
#
DISCID=a0092f0c
DTITLE=The Kennedys - Better Dreams
DYEAR=2008
DGENRE=Folk/Rock
TTITLE0=Breathe
TTITLE1=Speed of Soul
TTITLE2=I Found a Road
TTITLE3=No Mornings
TTITLE4=Better Dreams
TTITLE5=Give Me Back My Country
TTITLE6=American Wish
TTITLE7=Sago Mine
TTITLE8=Light My Way
TTITLE9=In My Dreams
TTITLE10=Kindred Spirits
TTITLE11=Pacé
EXTD=YEAR: 2008
EXTT0=
EXTT1=
EXTT2=
EXTT3=
EXTT4=
EXTT5=
EXTT6=
EXTT7=
EXTT8=
EXTT9=
EXTT10=
EXTT11=
PLAYORDER=
